<svg id="visual" viewBox="0 0 960 540" width="960" height="540" xmlns="http://www.w3.org/2000/svg" xmlns:xlink="http://www.w3.org/1999/xlink" version="1.1"><rect x="0" y="0" width="960" height="540" fill="#001220"></rect><defs><linearGradient id="grad1_0" x1="43.8%" y1="0%" x2="100%" y2="100%"><stop offset="14.444444444444446%" stop-color="#fbae3c" stop-opacity="1"></stop><stop offset="85.55555555555554%" stop-color="#fbae3c" stop-opacity="1"></stop></linearGradient></defs><defs><linearGradient id="grad1_1" x1="43.8%" y1="0%" x2="100%" y2="100%"><stop offset="14.444444444444446%" stop-color="#fbae3c" stop-opacity="1"></stop><stop offset="85.55555555555554%" stop-color="#001220" stop-opacity="1"></stop></linearGradient></defs><defs><linearGradient id="grad2_0" x1="0%" y1="0%" x2="56.3%" y2="100%"><stop offset="14.444444444444446%" stop-color="#fbae3c" stop-opacity="1"></stop><stop offset="85.55555555555554%" stop-color="#fbae3c" stop-opacity="1"></stop></linearGradient></defs><defs><linearGradient id="grad2_1" x1="0%" y1="0%" x2="56.3%" y2="100%"><stop offset="14.444444444444446%" stop-color="#001220" stop-opacity="1"></stop><stop offset="85.55555555555554%" stop-color="#fbae3c" stop-opacity="1"></stop></linearGradient></defs><g transform="translate(960, 0)"><path d="M0 378C-41.7 375.8 -83.5 373.7 -114 350.9C-144.6 328.2 -164 284.8 -185.7 255.6C-207.5 226.5 -231.6 211.4 -264.5 192.2C-297.5 173 -339.1 149.5 -359.5 116.8C-379.9 84.1 -378.9 42 -378 0L0 0Z" fill="#96446e"></path><path d="M0 189C-20.9 187.9 -41.7 186.8 -57 175.5C-72.3 164.1 -82 142.4 -92.9 127.8C-103.8 113.2 -115.8 105.7 -132.3 96.1C-148.7 86.5 -169.6 74.8 -179.7 58.4C-189.9 42 -189.5 21 -189 0L0 0Z" fill="#fbae3c"></path></g><g transform="translate(0, 540)"><path d="M0 -378C38 -372.3 75.9 -366.6 115.6 -355.7C155.2 -344.8 196.5 -328.6 215.1 -296.1C233.8 -263.6 229.8 -214.9 254.8 -185.2C279.9 -155.4 334.1 -144.5 359.5 -116.8C384.9 -89.1 381.4 -44.6 378 0L0 0Z" fill="#96446e"></path><path d="M0 -189C19 -186.2 38 -183.3 57.8 -177.8C77.6 -172.4 98.2 -164.3 107.6 -148.1C116.9 -131.8 114.9 -107.5 127.4 -92.6C140 -77.7 167.1 -72.3 179.7 -58.4C192.4 -44.6 190.7 -22.3 189 0L0 0Z" fill="#fbae3c"></path></g></svg>